<svg width="1600" height="900" viewBox="0 0 1600 900" fill="none" xmlns="http://www.w3.org/2000/svg">
  <defs>
    <linearGradient id="bg" x1="96" y1="88" x2="1480" y2="820" gradientUnits="userSpaceOnUse">
      <stop stop-color="#F8FAFC"/>
      <stop offset="0.45" stop-color="#EEF5F1"/>
      <stop offset="1" stop-color="#E6F7ED"/>
    </linearGradient>
    <linearGradient id="glow" x1="1040" y1="158" x2="1292" y2="508" gradientUnits="userSpaceOnUse">
      <stop stop-color="#14C95B" stop-opacity="0.44"/>
      <stop offset="1" stop-color="#14C95B" stop-opacity="0"/>
    </linearGradient>
    <linearGradient id="panelDark" x1="0" y1="0" x2="1" y2="1">
      <stop stop-color="#0F1720" stop-opacity="0.96"/>
      <stop offset="1" stop-color="#18232F" stop-opacity="0.86"/>
    </linearGradient>
    <linearGradient id="panelLight" x1="0" y1="0" x2="1" y2="1">
      <stop stop-color="#FFFFFF" stop-opacity="0.96"/>
      <stop offset="1" stop-color="#F3F7F5" stop-opacity="0.78"/>
    </linearGradient>
    <filter id="blur" x="836" y="76" width="530" height="514" filterUnits="userSpaceOnUse" color-interpolation-filters="sRGB">
      <feGaussianBlur stdDeviation="42"/>
    </filter>
  </defs>

  <rect width="1600" height="900" rx="28" fill="url(#bg)"/>

  <g opacity="0.72">
    <path d="M84 164H480" stroke="#D8E6DD" stroke-width="2"/>
    <path d="M84 742H652" stroke="#D8E6DD" stroke-width="2"/>
    <path d="M1122 130H1498" stroke="#D8E6DD" stroke-width="2"/>
    <path d="M996 780H1498" stroke="#D8E6DD" stroke-width="2"/>
  </g>

  <g filter="url(#blur)">
    <circle cx="1101" cy="333" r="160" fill="url(#glow)"/>
  </g>

  <rect x="104" y="108" width="618" height="684" rx="30" fill="url(#panelLight)" stroke="#DCE9E1"/>
  <rect x="134" y="140" width="180" height="12" rx="6" fill="#BFD1C7"/>
  <rect x="134" y="176" width="328" height="18" rx="9" fill="#10202A"/>
  <rect x="134" y="212" width="256" height="12" rx="6" fill="#93A8A0"/>

  <rect x="134" y="282" width="254" height="166" rx="22" fill="#FFFFFF" stroke="#D8E6DD"/>
  <rect x="412" y="282" width="280" height="166" rx="22" fill="#F5FBF7" stroke="#D8E6DD"/>
  <rect x="134" y="470" width="558" height="138" rx="22" fill="#FFFFFF" stroke="#D8E6DD"/>
  <rect x="134" y="632" width="262" height="128" rx="22" fill="#F5FBF7" stroke="#D8E6DD"/>
  <rect x="430" y="632" width="262" height="128" rx="22" fill="#FFFFFF" stroke="#D8E6DD"/>

  <path d="M184 363C214 323 274 316 322 340C344 352 363 371 389 378C416 385 444 378 466 361C495 338 509 298 542 280C577 261 621 269 656 286" stroke="#14C95B" stroke-width="8" stroke-linecap="round"/>
  <circle cx="184" cy="363" r="11" fill="#14C95B"/>
  <circle cx="389" cy="378" r="11" fill="#14C95B"/>
  <circle cx="656" cy="286" r="11" fill="#14C95B"/>

  <rect x="454" y="314" width="96" height="18" rx="9" fill="#10202A"/>
  <rect x="454" y="346" width="184" height="12" rx="6" fill="#8EA39B"/>
  <rect x="454" y="372" width="152" height="12" rx="6" fill="#C0D0C7"/>
  <rect x="454" y="400" width="120" height="28" rx="14" fill="#14C95B"/>

  <rect x="172" y="508" width="168" height="18" rx="9" fill="#10202A"/>
  <rect x="172" y="540" width="460" height="12" rx="6" fill="#9CB0A8"/>
  <rect x="172" y="566" width="420" height="12" rx="6" fill="#C0D0C7"/>

  <g opacity="0.94">
    <rect x="824" y="134" width="672" height="632" rx="34" fill="url(#panelDark)"/>
    <rect x="860" y="176" width="140" height="14" rx="7" fill="#355269"/>
    <rect x="860" y="214" width="348" height="22" rx="11" fill="#F8FAFC"/>
    <rect x="860" y="254" width="272" height="12" rx="6" fill="#87A2B6"/>

    <rect x="860" y="320" width="266" height="168" rx="24" fill="#11202B" stroke="#294253"/>
    <rect x="1152" y="320" width="304" height="256" rx="24" fill="#132634" stroke="#294253"/>
    <rect x="860" y="512" width="266" height="212" rx="24" fill="#11202B" stroke="#294253"/>

    <path d="M930 394L1000 364L1066 394L1000 424L930 394Z" fill="#14C95B" fill-opacity="0.16" stroke="#14C95B" stroke-width="3"/>
    <path d="M972 548H1070" stroke="#14C95B" stroke-width="8" stroke-linecap="round"/>
    <path d="M972 580H1046" stroke="#7FE5AA" stroke-width="6" stroke-linecap="round"/>
    <path d="M972 610H1024" stroke="#4A6A7F" stroke-width="6" stroke-linecap="round"/>

    <path d="M1200 418C1234 372 1294 346 1354 352C1392 356 1428 374 1452 404" stroke="#14C95B" stroke-width="7" stroke-linecap="round"/>
    <path d="M1206 486H1404" stroke="#88A9BC" stroke-width="10" stroke-linecap="round"/>
    <path d="M1206 526H1366" stroke="#4D6C7F" stroke-width="10" stroke-linecap="round"/>
    <circle cx="1452" cy="404" r="11" fill="#14C95B"/>

    <rect x="1196" y="612" width="214" height="20" rx="10" fill="#F8FAFC"/>
    <rect x="1196" y="648" width="172" height="12" rx="6" fill="#88A9BC"/>
    <rect x="1196" y="674" width="142" height="12" rx="6" fill="#4D6C7F"/>
  </g>

  <circle cx="1332" cy="214" r="7" fill="#14C95B"/>
  <circle cx="1360" cy="214" r="7" fill="#D7E6DE"/>
  <circle cx="1388" cy="214" r="7" fill="#D7E6DE"/>
</svg>
